<svg width="175" height="175" viewBox="0 0 175 175" fill="none" xmlns="http://www.w3.org/2000/svg">
<path fill-rule="evenodd" clip-rule="evenodd" d="M52.9801 144.525C58.3173 142.7 64.1525 142.185 69.7714 141.693C82.167 140.609 91.3364 129.681 90.2519 117.285C89.0594 103.654 78.8842 90.8665 69.7938 80.6397C61.7421 71.5814 49.6577 66.3138 36.6564 67.4512C14.8256 69.3612 -1.32339 88.6068 0.586557 110.438C0.989958 115.048 0.65552 119.787 0.325267 124.466C0.219333 125.966 0.11383 127.461 0.033247 128.944C-0.0241893 130 -0.00781164 131.074 0.0870903 132.158C1.17156 144.554 12.0993 153.723 24.4949 152.639C27.7448 152.355 30.773 151.394 33.4528 149.907C36.5854 148.169 40.0042 146.82 43.5729 146.507C46.8507 146.221 50.0004 145.543 52.9801 144.525ZM55.8407 105.479C56.965 118.329 54.7803 119.556 51.9745 119.801C49.1687 120.047 46.7891 119.046 45.6799 106.368C44.6606 94.7167 46.7403 92.2904 49.5461 92.0449C52.352 91.7994 54.7165 92.6284 55.8407 105.479ZM34.5494 107.591C35.6737 120.441 33.489 121.668 30.6832 121.914C27.8774 122.159 25.4979 121.159 24.3886 108.48C23.3693 96.8292 25.449 94.4028 28.2548 94.1574C31.0607 93.9119 33.4252 94.7409 34.5494 107.591Z" fill="#5EFF97"/>
<path fill-rule="evenodd" clip-rule="evenodd" d="M149.608 27.9049C150.331 30.2416 152.652 31.9019 155.098 31.9019C166.09 31.9019 175 40.8122 175 51.8036C175 56.5805 173.317 60.9643 170.512 64.3945C167.24 68.3952 164.417 73.2187 163.995 78.3698C163.989 78.445 163.983 78.5203 163.976 78.5956C162.066 100.426 142.82 116.575 120.99 114.665C99.1588 112.755 83.0098 93.5098 84.9197 71.679C84.9579 71.2422 85.0031 70.8076 85.0551 70.3754C85.6309 65.5883 84.0657 60.677 82.0182 56.3117C80.8636 53.8501 80.218 51.0992 80.218 48.1965C80.218 37.686 88.6828 29.1655 99.1247 29.1655C102.763 29.1655 106.574 27.0691 108.3 23.8662C112.11 16.799 119.551 12 128.107 12C138.209 12 146.757 18.6903 149.608 27.9049ZM133.012 79.3525C132.543 80.9932 130.837 81.9507 129.19 81.493C127.535 81.0331 126.566 79.3189 127.026 77.6642L127.027 77.6612C127.026 77.6642 127.027 77.6627 127.027 77.6612L127.03 77.651L127.034 77.6349C127.038 77.6231 127.042 77.6094 127.046 77.5938C127.056 77.5627 127.067 77.524 127.082 77.4782C127.11 77.3867 127.15 77.2665 127.201 77.1221C127.304 76.8339 127.455 76.4447 127.664 75.9897C128.078 75.0884 128.744 73.8804 129.751 72.6835C131.833 70.2099 135.353 67.8507 140.652 68.3142C145.951 68.7778 149.009 71.7126 150.629 74.5101C151.413 75.8637 151.859 77.169 152.111 78.1285C152.238 78.6129 152.319 79.0225 152.37 79.324C152.395 79.4752 152.413 79.6003 152.425 79.6955C152.432 79.7431 152.436 79.7832 152.44 79.8155C152.442 79.8316 152.443 79.8458 152.445 79.858L152.446 79.8747L152.447 79.8852C152.448 79.8867 152.446 79.8747 152.446 79.8747L152.448 79.8883C152.613 81.5977 151.362 83.1177 149.652 83.2832C147.951 83.448 146.437 82.2088 146.26 80.5116L146.258 80.4993L146.257 80.4865C146.253 80.4602 146.247 80.4162 146.237 80.3567C146.213 80.2147 146.169 79.989 146.095 79.7067C145.944 79.1327 145.683 78.3783 145.248 77.6274C144.43 76.2161 143.002 74.7629 140.11 74.5099C137.218 74.2568 135.56 75.44 134.509 76.688C133.951 77.3519 133.562 78.0494 133.314 78.5885C133.192 78.8537 133.11 79.0683 133.062 79.204C133.038 79.2715 133.023 79.3183 133.016 79.3407L133.012 79.3525ZM100.194 78.9562C101.841 79.4139 103.547 78.4564 104.016 76.8157L104.02 76.8039C104.027 76.7815 104.042 76.7347 104.066 76.6672C104.114 76.5315 104.197 76.3169 104.319 76.0517C104.567 75.5126 104.955 74.8151 105.514 74.1512C106.564 72.9032 108.223 71.7201 111.115 71.9731C114.007 72.2261 115.435 73.6793 116.252 75.0907C116.687 75.8415 116.949 76.5959 117.099 77.1699C117.173 77.4522 117.217 77.6779 117.241 77.8199C117.253 77.8905 117.26 77.9392 117.263 77.9625L117.264 77.9748C117.442 79.672 118.955 80.9112 120.657 80.7464C122.366 80.5809 123.618 79.0609 123.452 77.3515L123.452 77.3451C123.451 77.3379 123.452 77.35 123.452 77.3484L123.452 77.3451L123.451 77.3379L123.449 77.3212C123.448 77.309 123.446 77.2949 123.445 77.2787C123.441 77.2465 123.436 77.2063 123.43 77.1587C123.417 77.0636 123.399 76.9384 123.374 76.7873C123.323 76.4857 123.242 76.0761 123.115 75.5917C122.863 74.6322 122.418 73.3269 121.634 71.9733C120.013 69.1758 116.956 66.241 111.657 65.7775C106.358 65.3139 102.837 67.6731 100.755 70.1467C99.7482 71.3436 99.0828 72.5517 98.6683 73.4529C98.4591 73.9079 98.308 74.2971 98.2056 74.5853C98.1543 74.7298 98.1148 74.8499 98.0861 74.9414C98.0799 74.9611 98.0742 74.9795 98.069 74.9966C98.0621 75.0191 98.0561 75.0393 98.0508 75.0571C98.0481 75.0662 98.0456 75.0748 98.0434 75.0826C98.0418 75.0881 98.0403 75.0932 98.0389 75.0981L98.0343 75.1142L98.0323 75.1212L98.0315 75.1244C98.031 75.1259 98.0449 75.0771 98.0434 75.0826L98.0306 75.1274C97.5707 76.7821 98.5393 78.4963 100.194 78.9562Z" fill="#FF5F5F"/>
<path fill-rule="evenodd" clip-rule="evenodd" d="M71.5681 21.7395C71.9579 23.7632 70.6332 25.7197 68.6095 26.1094C63.7186 27.0513 59.0236 28.542 54.5903 30.5152C52.7075 31.3532 50.5018 30.5062 49.6638 28.6234C48.8258 26.7406 49.6727 24.5349 51.5556 23.6969C56.5021 21.4953 61.7413 19.8318 67.1982 18.7809C69.222 18.3912 71.1784 19.7158 71.5681 21.7395ZM30.7983 42.8382C32.3754 44.1648 32.5785 46.5187 31.2519 48.0959C28.1008 51.8421 25.366 55.9486 23.1181 60.3438C22.1797 62.1787 19.9316 62.9054 18.0967 61.967C16.2619 61.0286 15.5351 58.7804 16.4735 56.9456C18.9806 52.0434 22.0295 47.466 25.5406 43.2918C26.8672 41.7147 29.2212 41.5116 30.7983 42.8382ZM138.836 127.018C140.506 128.225 140.881 130.558 139.674 132.228C136.326 136.86 132.444 141.08 128.117 144.797C126.554 146.14 124.198 145.962 122.855 144.399C121.512 142.835 121.69 140.479 123.254 139.136C127.137 135.8 130.621 132.013 133.625 127.856C134.833 126.186 137.165 125.811 138.836 127.018ZM100.682 155.76C101.163 157.764 99.9282 159.778 97.9243 160.26C92.4805 161.567 86.8007 162.258 80.9644 162.258C78.9035 162.258 77.2328 160.587 77.2328 158.527C77.2328 156.466 78.9035 154.795 80.9644 154.795C86.2094 154.795 91.3045 154.174 96.1819 153.003C98.1858 152.522 100.2 153.756 100.682 155.76Z" fill="#E0E0E0"/>
</svg>
